# xmcd CD database file
# Copyright (C) 1995-1998 Ti Kan
#
# Track frame offsets:
#	150
#	11925
#	22510
#	31817
#	43017
#	55332
#	66387
#	78875
#	90022
#	100207
#	111457
#	122430
#	133485
#	147195
#
# Disc length: 2111 seconds
#
# Revision: 1
# Processed by: cddbd v1.4PL0 Copyright (c) Steve Scherf et al.
# Submitted via: CDex 1.30Release
#
DISCID=b3083d0e
DTITLE=Patsy Cline - Today, Tomorrow and Foreever
DYEAR=1998
DGENRE=Country
TTITLE0=Today, Tomorrow and Forever
TTITLE1=Honky Tonk Merry Go Round
TTITLE2=Love Me Honey Do
TTITLE3=Just Out Of Reach
TTITLE4=A Poor Man's Roses Or A Rich Man's Gold
TTITLE5=A Stranger In My Arms
TTITLE6=Fingerprints
TTITLE7=Hungry For Love
TTITLE8=Walking Dreams
TTITLE9=That Wonderful Someone
TTITLE10=I Can't Forget
TTITLE11=Hidin' Out
TTITLE12=A Church, A Courtroom And Then Goodbye
TTITLE13=Cry Not For Me
EXTD=YEAR: 1998 ID3G:   2
EXTT0=
EXTT1=
EXTT2=
EXTT3=
EXTT4=
EXTT5=
EXTT6=
EXTT7=
EXTT8=
EXTT9=
EXTT10=
EXTT11=
EXTT12=
EXTT13=
PLAYORDER=
